<svg xmlns="http://www.w3.org/2000/svg" version="1.1" xmlns:xlink="http://www.w3.org/1999/xlink" xmlns:svgjs="http://svgjs.dev/svgjs" width="32" height="32"><svg width="32" height="32" viewBox="0 0 32 32" fill="none" xmlns="http://www.w3.org/2000/svg">
<rect width="32" height="32" fill="#0A663A"></rect>
<g clip-path="url(#clip0_27008_10)">
<path d="M28.6625 10.9977C27.1569 11.8468 26.3466 12.1932 24.7861 12.1149C24.1987 12.1084 23.8882 11.8665 23.3075 11.9188C22.7671 11.9383 22.4904 12.1344 21.9498 12.3107C21.1193 12.5591 20.6665 12.7811 19.7954 13.0425C19.2419 13.1928 18.891 13.1993 18.3167 13.3886C17.8239 13.5912 18.0603 13.4279 17.7159 13.813C17.2701 14.29 17.3782 14.6624 16.9596 15.4787C16.4399 16.5501 16.5001 16.6936 16.7975 16.8245C16.6018 17.3729 16.5547 17.7391 16.6017 18.3333C16.6555 18.784 16.4601 19.0973 16.9596 19.4565C17.6419 19.9467 19.0736 21.0961 19.4384 21.1153C19.9853 21.0961 21.5793 21.1549 22.3894 20.6129C22.5719 20.5019 22.626 20.3908 22.4703 20.8093C22.437 20.8613 20.4512 22.3571 20.2353 22.3503C18.7057 22.398 18.4122 22.4671 18.3842 22.5009C18.2084 22.4351 17.0369 21.0826 16.3187 21.5795C16.0415 21.7431 15.9132 21.8999 15.8049 22.1941C15.8995 22.3834 16.3456 22.6843 16.7569 22.9324C17.3513 23.2985 17.4051 23.6831 17.9995 23.821C18.7219 23.9773 19.4919 23.8727 19.9508 23.9315C20.127 23.9773 21.7204 23.5266 22.713 23.0106C23.6314 22.5535 21.4502 23.8925 20.9165 24.5522C19.3093 25.0425 19.7621 25.062 18.9986 25.2123C18.2896 25.3688 18.3232 25.3298 17.8371 25.4799C17.3373 25.5974 16.9254 26.2572 17.3986 26.603C17.6823 26.8319 18.5671 26.5118 19.4379 26.4852C19.8229 26.4793 21.3962 25.78 21.754 25.5971C22.6458 25.1332 23.3002 24.4932 23.8272 24.127C24.5563 23.6376 23.0034 25.4796 22.3482 26.2504C22.1592 26.499 22.0715 26.5508 21.8352 26.8709C21.4438 27.3614 21.943 28.1059 22.1928 27.9881C22.4831 27.8838 22.6724 27.3221 22.9897 27.139C23.1521 27.054 23.5841 26.4397 23.9893 26.0218C24.2863 25.6954 24.5025 25.5516 24.7861 25.212C25.2658 24.637 25.3669 24.1996 25.7857 23.5854C26.0422 23.265 26.2242 23.1675 26.4606 22.7756C27.7102 20.4894 27.3454 19.4635 28.541 17.8306C28.9058 17.3472 29.3174 17.2294 29.8984 16.942C30.4385 13.1335 28.649 11.0042 28.6625 10.9977ZM22.8682 17.0598C22.5842 18.0199 22.6117 18.131 22.0713 18.4901C21.4161 18.9736 21.3822 18.6077 19.8766 19.4177C19.8766 19.4177 19.255 18.7907 18.2759 18.4901C18.2823 18.5034 18.0124 17.2751 17.479 16.8635C18.7482 15.9293 18.7143 15.1393 18.9173 15.1653C19.3698 15.2046 20.0928 15.4267 21.4298 14.9367C22.2001 16.3543 23.1319 16.2822 22.8682 17.0598Z" fill="white"></path>
<path d="M15.2438 10.1085C14.6496 9.72308 14.5889 9.33768 14.0011 9.21363C13.2787 9.04382 12.502 9.14836 12.0493 9.06332C11.8737 9.04382 10.2802 9.49449 9.29406 9.99093C8.36222 10.4679 10.5501 9.12859 11.0905 8.44283C12.691 7.97916 12.2318 7.95939 13.0085 7.78957C13.7108 7.65253 13.6769 7.69153 14.1633 7.55449C14.6563 7.42394 15.0749 6.77041 14.602 6.39828C14.3117 6.1892 13.4339 6.50933 12.5692 6.51583C12.1778 6.54237 10.6039 7.2414 10.2461 7.43721C9.35454 7.88789 8.69962 8.52815 8.17294 8.86777C7.43682 9.38399 8.9967 7.54826 9.6519 6.78396C9.8409 6.5226 9.92882 6.47033 10.1716 6.16347C10.5501 5.66053 10.0568 4.91572 9.81402 5.00727C9.51666 5.13781 9.32794 5.69953 8.96954 5.89561C8.8413 5.96765 8.40898 6.58164 8.01082 7.01281C7.71346 7.32644 7.4973 7.46999 7.21366 7.82939C6.72758 8.3846 6.63294 8.82227 6.21434 9.41026C5.95786 9.76289 5.76858 9.85443 5.53898 10.2593C4.2899 12.5325 4.64774 13.5581 3.45914 15.165C3.09458 15.6809 2.6827 15.792 2.1017 16.0926C1.5613 19.8944 3.34434 22.0174 3.33734 22.0044C4.84346 21.1751 5.64706 20.8285 7.21394 20.8813C7.80166 20.9138 8.11218 21.1554 8.6929 21.1158C9.2333 21.0836 9.50994 20.8872 10.0503 20.7307C10.8811 20.4631 11.3333 20.2405 12.1641 19.9921C12.7585 19.8285 13.1096 19.8223 13.6839 19.607C14.1767 19.4304 13.9404 19.5937 14.2848 19.2213C14.7235 18.7314 14.6222 18.359 15.0007 17.5619C15.5613 16.4712 15.5003 16.3274 15.2032 16.2099C15.3925 15.6482 15.4465 15.289 15.3989 14.7011C15.3381 14.2439 15.5409 13.9238 15.0413 13.5839C14.359 13.0744 12.9273 11.9247 12.5695 11.9182C12.0157 11.9247 10.4219 11.8659 9.61158 12.3819C9.42958 12.5189 9.37526 12.6302 9.53066 12.2316C9.56454 12.1595 11.55 10.6637 11.7659 10.6442C13.1824 10.6149 13.5389 10.5589 13.6063 10.528C13.7463 10.5315 14.9515 11.948 15.6831 11.4543C15.9533 11.278 16.0883 11.1211 16.2031 10.8403C16.1017 10.6377 15.6559 10.3373 15.2438 10.1085ZM9.92882 14.5117C10.577 14.0481 10.6173 14.4137 12.1235 13.6234C12.1235 13.6036 12.7448 14.2309 13.7242 14.5117C13.7175 14.5182 13.9874 15.7462 14.5211 16.1709C13.2513 17.092 13.2852 17.8826 13.0825 17.8693C12.6297 17.817 11.9073 17.5947 10.5703 18.0657C9.79358 16.6676 8.86846 16.7459 9.13166 15.9358C9.4153 15.0082 9.3817 14.8906 9.92882 14.5117Z" fill="white"></path>
</g>
<defs>
<clipPath id="SvgjsClipPath1001">
<rect width="28" height="23" fill="white" transform="translate(2 5)"></rect>
</clipPath>
</defs>
</svg><style>@media (prefers-color-scheme: light) { :root { filter: none; } }
@media (prefers-color-scheme: dark) { :root { filter: none; } }
</style></svg>